<?xml version="1.0"?><svg id="Слой_1" style="enable-background:new 0 0 300 300;" version="1.1" viewBox="0 0 300 300" xml:space="preserve" xmlns="http://www.w3.org/2000/svg" xmlns:xlink="http://www.w3.org/1999/xlink"><g><path d="M209.514,82.018V68.486c0-9.89-8.545-17.936-19.049-17.936h-1.141v11.746   c0,4.074-3.314,7.387-7.388,7.387s-7.388-3.314-7.388-7.387V50.55H150.91v11.746c0,4.074-3.314,7.387-7.388,7.387   s-7.388-3.314-7.388-7.387V50.55h-23.638v11.746c0,4.074-3.314,7.387-7.388,7.387s-7.388-3.314-7.388-7.387V50.55H74.081v11.746   c0,4.074-3.314,7.387-7.388,7.387s-7.388-3.314-7.388-7.387V50.55h-1.141c-10.504,0-19.049,8.046-19.049,17.936v15.298h169.023   L209.514,82.018z" style="fill:#5AAAE0;"/><path d="M163.77,183.893c-0.041,0.035-0.084,0.069-0.126,0.101l-32.04,23.634   c-0.694,0.572-1.35,0.694-1.784,0.694c-0.8,0-1.526-0.402-1.941-1.076c-0.449-0.727-0.461-1.652-0.037-2.55l15.13-36.801   c0.02-0.047,0.041-0.095,0.064-0.14c0.37-0.736,0.822-1.448,1.342-2.116l60.574-77.765H39.115v154.16   c0,9.89,8.545,17.936,19.049,17.936h132.301c10.504,0,19.049-8.046,19.049-17.936V125.558l-44.024,56.518   C164.973,182.74,164.395,183.351,163.77,183.893z" style="fill:#F2F2F2;"/><path d="M66.693,65.593c1.819,0,3.298-1.479,3.298-3.297V43.328c0-1.818-1.479-3.297-3.298-3.297   s-3.298,1.479-3.298,3.297v18.968C63.395,64.114,64.874,65.593,66.693,65.593z" style="fill:#FFFFFF;"/><path d="M105.108,65.593c1.819,0,3.298-1.479,3.298-3.297V43.328c0-1.818-1.479-3.297-3.298-3.297   c-1.819,0-3.298,1.479-3.298,3.297v18.968C101.81,64.114,103.289,65.593,105.108,65.593z" style="fill:#FFFFFF;"/><path d="M143.522,65.593c1.819,0,3.298-1.479,3.298-3.297V43.328c0-1.818-1.479-3.297-3.298-3.297   c-1.819,0-3.298,1.479-3.298,3.297v18.968C140.224,64.114,141.703,65.593,143.522,65.593z" style="fill:#FFFFFF;"/><path d="M181.936,65.593c1.819,0,3.298-1.479,3.298-3.297V43.328c0-1.818-1.479-3.297-3.298-3.297   c-1.819,0-3.298,1.479-3.298,3.297v18.968C178.638,64.114,180.118,65.593,181.936,65.593z" style="fill:#FFFFFF;"/><polygon points="157.614,174.327 163.065,178.533 246.416,71.526 240.489,66.911  " style="fill:#F7C12C;"/><polygon points="234.274,56.888 248.931,68.299 255.161,60.3 240.454,48.954  " style="fill:#999999;"/><path d="M257.321,42.43c-1.622-1.251-3.574-1.912-5.647-1.912c-2.954,0-5.684,1.329-7.488,3.645   l-1.219,1.565l14.707,11.346l1.23-1.579c1.544-1.982,2.221-4.446,1.904-6.939C260.497,46.1,259.259,43.925,257.321,42.43z" style="fill:#ED343B;"/><polygon points="160.176,181.469 146.236,170.714 140.334,185.07 147.647,190.712  " style="fill:#E6A791;"/><polygon points="133.821,200.912 144.225,193.236 138.722,188.991  " style="fill:#999999;"/><polygon points="154.376,171.829 237.261,64.398 231.76,60.115 148.358,167.186  " style="fill:#F7C12C;"/><path d="M264.866,48.041c-0.449-3.543-2.241-6.686-5.047-8.85c-2.343-1.809-5.159-2.764-8.144-2.764   c-4.225,0-8.13,1.903-10.715,5.222l-27.354,35.117v-8.281c0-12.145-10.38-22.026-23.139-22.026h-1.141v-3.132   c0-4.074-3.314-7.387-7.388-7.387s-7.388,3.314-7.388,7.387v3.132H150.91v-3.132c0-4.074-3.314-7.387-7.388-7.387   s-7.388,3.314-7.388,7.387v3.132h-23.638v-3.132c0-4.074-3.314-7.387-7.388-7.387s-7.388,3.314-7.388,7.387v3.132H74.081v-3.132   c0-4.074-3.314-7.387-7.388-7.387s-7.388,3.314-7.388,7.387v3.132h-1.141c-12.759,0-23.139,9.881-23.139,22.026v173.548   c0,12.145,10.38,22.027,23.139,22.027h132.301c12.759,0,23.139-9.881,23.139-22.027V120.307l48.527-62.299   C264.348,55.162,265.32,51.622,264.866,48.041z M231.76,60.115l5.501,4.283l-82.886,107.431l-6.018-4.643L231.76,60.115z    M140.334,185.07l5.902-14.356l13.94,10.755l-12.529,9.243L140.334,185.07z M144.225,193.236l-10.404,7.675l4.901-11.921   L144.225,193.236z M178.638,43.328c0-1.818,1.479-3.297,3.298-3.297c1.819,0,3.298,1.479,3.298,3.297v18.968   c0,1.818-1.479,3.297-3.298,3.297c-1.819,0-3.298-1.479-3.298-3.297V43.328z M140.224,43.328c0-1.818,1.479-3.297,3.298-3.297   c1.819,0,3.298,1.479,3.298,3.297v18.968c0,1.818-1.479,3.297-3.298,3.297c-1.819,0-3.298-1.479-3.298-3.297V43.328z    M101.81,43.328c0-1.818,1.479-3.297,3.298-3.297c1.819,0,3.298,1.479,3.298,3.297v18.968c0,1.818-1.479,3.297-3.298,3.297   c-1.819,0-3.298-1.479-3.298-3.297V43.328z M63.395,43.328c0-1.818,1.479-3.297,3.298-3.297s3.298,1.479,3.298,3.297v18.968   c0,1.818-1.479,3.297-3.298,3.297s-3.298-1.479-3.298-3.297V43.328z M39.115,68.486c0-9.89,8.545-17.936,19.049-17.936h1.141   v11.746c0,4.074,3.314,7.387,7.388,7.387s7.388-3.314,7.388-7.387V50.55h23.638v11.746c0,4.074,3.314,7.387,7.388,7.387   s7.388-3.314,7.388-7.387V50.55h23.638v11.746c0,4.074,3.314,7.387,7.388,7.387s7.388-3.314,7.388-7.387V50.55h23.638v11.746   c0,4.074,3.314,7.387,7.388,7.387s7.388-3.314,7.388-7.387V50.55h1.141c10.504,0,19.049,8.046,19.049,17.936v13.532l-1.376,1.766   H39.115V68.486z M209.514,242.033c0,9.89-8.545,17.936-19.049,17.936H58.164c-10.504,0-19.049-8.046-19.049-17.936V87.874h165.837   l-60.574,77.765c-0.521,0.668-0.972,1.381-1.342,2.116c-0.023,0.046-0.044,0.093-0.064,0.14l-15.13,36.801   c-0.423,0.898-0.411,1.823,0.037,2.55c0.415,0.674,1.141,1.076,1.941,1.076c0.434,0,1.09-0.122,1.784-0.694l32.04-23.634   c0.043-0.032,0.085-0.066,0.126-0.101c0.624-0.542,1.202-1.153,1.72-1.817l44.024-56.518V242.033z M163.065,178.533l-5.451-4.206   l82.875-107.416l5.928,4.615L163.065,178.533z M248.931,68.299l-14.656-11.411l6.18-7.934L255.161,60.3L248.931,68.299z    M258.904,55.495l-1.23,1.579l-14.707-11.346l1.219-1.565c1.804-2.317,4.534-3.645,7.488-3.645c2.073,0,4.025,0.661,5.647,1.912   c1.939,1.495,3.177,3.671,3.487,6.126C261.124,51.049,260.448,53.513,258.904,55.495z" style="fill:#333333;"/></g></svg>